<svg width="700" height="700" viewBox="0 0 700 700" fill="none" xmlns="http://www.w3.org/2000/svg">
<g clip-path="url(#clip0_32_2)">
<path d="M479.388 164.582C478.862 164.554 478.316 164.757 477.924 165.256L359.303 313.534C359.093 313.795 358.962 314.11 358.924 314.442C358.885 314.775 358.942 315.111 359.087 315.413C359.232 315.715 359.46 315.969 359.743 316.147C360.027 316.325 360.355 316.419 360.69 316.419H446.404C448.725 316.419 450.903 315.372 452.346 313.561L479.427 279.721C480.502 278.363 481.096 276.688 481.096 274.962V166.362C481.096 165.318 480.266 164.628 479.388 164.582V164.582ZM203.592 164.593C202.715 164.638 201.89 165.318 201.89 166.362V274.963C201.89 276.689 202.483 278.363 203.559 279.721L292.667 391.096C294.11 392.907 296.288 393.954 298.608 393.954H384.317C385.817 393.954 386.638 392.229 385.704 391.069L205.057 165.256C204.664 164.768 204.118 164.567 203.592 164.593V164.593Z" fill="white"/>
<path d="M569.899 470.584H589.982L590.047 532.069C590.047 532.858 590.69 533.509 591.487 533.509L602.989 533.501C603.786 533.501 604.428 532.858 604.428 532.061L604.363 470.584H629.546C630.287 470.584 630.71 469.722 630.238 469.144L621.616 458.358C621.26 457.912 620.808 457.552 620.294 457.305C619.78 457.057 619.217 456.928 618.647 456.927H569.899C569.102 456.927 568.459 457.569 568.459 458.366V469.152C568.459 469.933 569.102 470.584 569.899 470.584M85.2215 532.078L144.129 458.366C144.592 457.789 144.177 456.927 143.437 456.927H128.706C127.551 456.927 126.453 457.455 125.737 458.358L83.9445 510.644V458.358C83.9445 457.561 83.3019 456.919 82.5047 456.919H71.0031C70.206 456.919 69.5634 457.561 69.5634 458.358V532.069C69.5634 532.867 70.206 533.509 71.0031 533.509H82.2526C83.4076 533.509 84.4976 532.98 85.2215 532.078ZM126.754 532.078L147.016 506.724L167.278 532.078C167.635 532.524 168.088 532.885 168.604 533.133C169.119 533.381 169.683 533.509 170.255 533.509H181.505C182.302 533.509 182.944 532.867 182.944 532.069V458.358C182.944 457.569 182.302 456.919 181.505 456.919H172.069C169.759 456.919 167.571 457.968 166.123 459.774L108.355 532.061C107.891 532.639 108.306 533.501 109.046 533.501H123.777C124.94 533.509 126.03 532.98 126.754 532.078M168.555 478.222V512.182L154.988 495.206L168.555 478.222ZM898.817 524.423L839.91 450.712C839.554 450.266 839.103 449.906 838.589 449.658C838.075 449.411 837.512 449.281 836.941 449.281H825.684C824.886 449.281 824.244 449.923 824.244 450.72V524.431C824.244 525.228 824.886 525.871 825.684 525.871H836.933C838.088 525.871 839.186 525.342 839.902 524.44L860.164 499.086L880.426 524.44C880.782 524.885 881.234 525.245 881.748 525.493C882.261 525.741 882.825 525.87 883.395 525.871H898.126C898.866 525.871 899.281 525.009 898.817 524.423M852.184 487.568L838.609 504.552V478.222L852.184 487.568ZM288.736 455.007C266.53 455.007 248.53 473.008 248.53 495.214C248.53 517.42 266.53 535.421 288.736 535.421C310.942 535.421 328.943 517.42 328.943 495.214C328.951 473.008 310.942 455.007 288.736 455.007ZM288.736 521.755C274.469 521.755 262.911 509.871 262.911 495.214C262.911 480.556 274.469 468.664 288.736 468.664C303.004 468.664 314.562 480.548 314.562 495.214C314.57 509.871 303.004 521.755 288.736 521.755ZM544.09 458.358V510.644L502.297 458.35C501.941 457.904 501.489 457.544 500.975 457.296C500.461 457.049 499.898 456.919 499.328 456.919H488.062C487.273 456.919 486.622 457.561 486.622 458.358V493.88C486.622 494.742 486.915 495.58 487.46 496.255L499.425 511.23C499.954 511.889 501.012 511.515 501.012 510.677V479.767L542.813 532.078C543.169 532.523 543.62 532.884 544.134 533.131C544.648 533.379 545.211 533.508 545.782 533.509H557.031C557.828 533.509 558.471 532.867 558.471 532.069V458.358C558.471 457.569 557.828 456.919 557.031 456.919H545.529C544.732 456.919 544.09 457.569 544.09 458.358M403.565 474.334V458.358C403.565 457.561 402.923 456.919 402.126 456.919H343.259C342.462 456.919 341.819 457.561 341.819 458.358V532.069C341.819 532.867 342.462 533.509 343.259 533.509H354.761C355.558 533.509 356.2 532.867 356.2 532.069V470.592H389.184L366.921 498.459C366.506 498.98 366.506 499.728 366.921 500.257L392.356 532.086C392.712 532.532 393.164 532.892 393.678 533.139C394.192 533.387 394.755 533.516 395.325 533.517H410.056C410.796 533.517 411.211 532.655 410.748 532.078L384.605 499.37L402.727 476.725C403.264 476.034 403.565 475.196 403.565 474.334M201.653 533.509H235.783C236.938 533.509 238.037 532.98 238.752 532.078L247.375 521.284C247.838 520.706 247.423 519.844 246.683 519.844H214.594V458.358C214.594 457.561 213.952 456.919 213.154 456.919H201.653C200.856 456.919 200.213 457.561 200.213 458.358V532.069C200.213 532.858 200.864 533.509 201.653 533.509Z" fill="white"/>
</g>
<defs>
<clipPath id="clip0_32_2">
<rect width="700" height="700" fill="white"/>
</clipPath>
</defs>
</svg>
